<svg xmlns="http://www.w3.org/2000/svg" fill="none" viewBox="0 0 464 151"><path fill="#fff" d="m175.736 43.448 12.469 41.689 12.288-41.69h18.39L195.469 107.1h-14.528l-23.678-63.651h18.478zM249.914 107.636q-7.263 0-13.187-2.781c-3.944-1.851-7.324-4.29-10.135-7.307a33 33 0 0 1-6.547-10.357c-1.555-3.882-2.333-7.89-2.333-12.013s.806-8.218 2.421-12.1c1.616-3.883 3.871-7.307 6.774-10.264q4.349-4.434 10.316-7.085c3.977-1.763 8.324-2.647 13.052-2.647s9.237.925 13.186 2.781q5.919 2.778 10.135 7.353a33.1 33.1 0 0 1 6.505 10.398c1.523 3.887 2.287 7.858 2.287 11.925s-.805 8.205-2.421 12.06q-2.423 5.78-6.727 10.222-4.305 4.437-10.27 7.126-5.966 2.688-13.052 2.689zm-14.441-32.272q.001 3.227.898 6.233.897 3.004 2.69 5.335t4.528 3.767 6.505 1.435c2.514 0 4.695-.491 6.547-1.481q2.778-1.48 4.528-3.855t2.602-5.423q.853-3.05.852-6.187c0-2.092-.301-4.225-.898-6.234q-.896-3.004-2.736-5.289t-4.575-3.674q-2.737-1.389-6.412-1.388c-2.45 0-4.681.476-6.506 1.434q-2.736 1.436-4.528 3.809c-1.194 1.582-2.079 3.378-2.643 5.377a22.3 22.3 0 0 0-.852 6.14"/><path fill="#fff" d="m299.427 43.448 11.57 20.083 11.571-20.083h18.835L320.142 75.72l20.543 31.379H321.85l-10.853-19.186-10.852 19.186h-18.928l20.543-31.38-21.26-32.271zM391.281 91.856v15.238h-45.388V43.448h44.578v15.238h-27.09v8.964h23.14v14.164h-23.14v10.042h27.9M399.439 107.099V43.448h17.493v48.408h28.882v15.238h-46.375zM109.217 44.11 71.904 22.62 34.591 44.11 17.437 33.98v63.656l54.467 30.749 54.467-30.75V33.98zM71.904 24.946l34.299 19.755-16.159 9.537-18.19-10.5L53.68 54.19l-16.07-9.492 34.299-19.755zm17.214 51.13-16.205 9.148V66.696l16.113-9.514.092 18.89zM54.685 57.13l16.21 9.57v18.528l-16.21-9.153zm17.215 7.82-16.224-9.578 16.173-9.302 16.195 9.348zM35.6 45.864l17.062 10.074v21.32l18.228 10.29v19.533L35.6 87.154zm37.313 61.217V87.548l18.229-10.292-.107-21.254 17.168-10.134v41.291l-35.294 19.926z"/></svg>